<svg xmlns="http://www.w3.org/2000/svg" xmlns:xlink="http://www.w3.org/1999/xlink" id="Layer_1" x="0" y="0" version="1.1" viewBox="0 0 61.2 52.6" xml:space="preserve" style="enable-background:new 0 0 61.2 52.6"><style type="text/css">.st0,.st1,.st2{fill:#f2f2f2;stroke:#bfbfbf;stroke-width:2;stroke-linejoin:round;stroke-miterlimit:1.4142}.st1,.st2{fill:#ccc;stroke:#ccc;stroke-linecap:round;stroke-miterlimit:1.5}.st2{fill:#607d8b}.st3{fill:#7d9199}.st4{fill:#566366}.st5{fill:#fff}.st6{fill:#0097a7}</style><path d="M49.8,17.5c0,0-6.6,3.3-14.3,2.3c-9.1-1.2-13.9-6.5-18.3-6.5C13.7,13.3,1,17.5,1,17.5v31.9c0,0,12.4-3.2,16-3.1	c4.5,0.2,9.4,4.1,18.6,5.1c7.4,0.8,14.3-1.9,14.3-2L49.8,17.5L49.8,17.5z" class="st0"/><path d="M6.4,38h24.1" class="st1"/><path d="M5.9,27.6h33.2" class="st2"/><g><path d="M55,2.7c-3-1.3-6.5-0.3-8.7,2.5l5.5,5.1L55,2.7z" class="st3"/><path d="M55,2.6c3,1.3,4.7,4.7,4.3,8.3l-7.4-0.6L55,2.6z" class="st4"/><path d="M44.7,28l-6.5-2.9l-1.9,4.7c0,0,2.2,2.2,2.9,3.6c0.6,1.1,1.3,4.4,1.3,4.4l0.2,0.1L44.7,28L44.7,28z" class="st3"/><path d="M52.8,8l-6.5-2.9l-8.5,21l6.5,2.9L52.8,8z" class="st3"/><path d="M59.2,10.9L52.8,8l-8.4,20.6l6.5,2.9L59.2,10.9z" class="st4"/><path d="M44.7,27.9l6.5,2.9l-1.9,4.7c0,0-3-0.1-4.5,0.3c-1.2,0.3-4,2.1-4,2.1l-0.2-0.1L44.7,27.9L44.7,27.9z" class="st4"/><path d="M45.1,26.9c0.4,0.2,0.7,0.7,0.5,1.2c-0.2,0.5-0.7,0.7-1.2,0.5c-0.4-0.2-0.7-0.7-0.5-1.2 C44.1,27,44.7,26.7,45.1,26.9z" class="st5"/><path d="M53.4,15.8c0,0,2.9-1.3,3.8-1.4c0.6-0.1,1.6,0.8,1.6,0.8s0.7-0.7,1.1-1c0.4-0.3,1.4-0.8,1.4-0.8 s-2.5-1.3-3.6-0.9C56.3,12.9,53.4,15.8,53.4,15.8z" class="st6"/><path d="M48.1,26.7c0,0,2.9-1.3,3.8-1.4c0.6-0.1,1.6,0.8,1.6,0.8s0.7-0.7,1.1-1c0.4-0.3,1.4-0.8,1.4-0.8 s-2.5-1.3-3.6-0.9C51,23.8,48.1,26.7,48.1,26.7L48.1,26.7z" class="st6"/><path d="M44.4,19.3c0,0-1.4-2.9-2-3.6c-0.4-0.5-1.7-0.5-1.7-0.5s-0.1-1-0.2-1.5c-0.1-0.5-0.5-1.5-0.5-1.5 s2.7,0.8,3.3,1.7C44,15.1,44.4,19.3,44.4,19.3L44.4,19.3z" class="st6"/><path d="M48.6,7.1c0,0-1.4-2.9-2-3.6C46.1,3,44.8,3,44.8,3s-0.1-1-0.2-1.4C44.5,1,44.1,0,44.1,0s2.7,0.8,3.3,1.7 C48.1,2.9,48.6,7.1,48.6,7.1L48.6,7.1z" class="st6"/></g></svg>