<svg xmlns="http://www.w3.org/2000/svg" xmlns:xlink="http://www.w3.org/1999/xlink" id="Layer_1" x="0" y="0" version="1.1" viewBox="0 0 55 55" xml:space="preserve" style="enable-background:new 0 0 55 55"><style type="text/css">.st0{fill:#777677}</style><g id="XMLID_1_"><rect id="XMLID_3_" width="6.4" height="6.3" x="24.3" y="24.2" class="st0" transform="matrix(0.9478 -0.319 0.319 0.9478 -7.3016 10.1971)"/><path id="XMLID_6_" d="M27.5,0C12.3,0,0,12.3,0,27.5S12.3,55,27.5,55S55,42.7,55,27.5S42.7,0,27.5,0z M41.5,31.9 l-2.9,1l1,3c0.5,1.5-0.3,3-1.7,3.5c-1.5,0.5-3-0.3-3.5-1.7l-1-3l-6.1,2l1,3c0.5,1.5-0.3,3-1.7,3.5c-1.5,0.5-3-0.3-3.5-1.7l-1-3 l-2.8,0.9c-1.5,0.5-3-0.3-3.5-1.7c-0.5-1.5,0.3-3,1.7-3.5l2.8-0.9l-2-5.9l-2.9,1c-1.5,0.5-3-0.3-3.5-1.7c-0.5-1.5,0.3-3,1.7-3.5 l2.9-1l-1-2.8c-0.5-1.5,0.3-3,1.7-3.5c1.5-0.5,3,0.3,3.5,1.7l1,2.8l6.1-2l-1-2.9c-0.5-1.5,0.3-3,1.7-3.5c1.5-0.5,3,0.3,3.5,1.7 l1,2.9l2.9-1c1.5-0.5,3,0.3,3.5,1.7c0.5,1.5-0.3,3-1.7,3.5l-2.9,1l2,5.9l2.9-1c1.5-0.5,3,0.3,3.5,1.7 C43.7,29.8,42.9,31.4,41.5,31.9z" class="st0"/></g></svg>